<svg width="20" height="25" viewBox="0 0 20 25" fill="none" xmlns="http://www.w3.org/2000/svg">
<path id="Compras" d="M16.9979 5.3842H14.6398C14.6398 2.80337 12.5294 0.713013 9.92373 0.713013C7.31809 0.713013 5.20763 2.80337 5.20763 5.3842H2.84958C1.55265 5.3842 0.491531 6.43522 0.491531 7.71979V21.7334C0.491531 23.0179 1.55265 24.0689 2.84958 24.0689H16.9979C18.2948 24.0689 19.3559 23.0179 19.3559 21.7334V7.71979C19.3559 6.43522 18.2948 5.3842 16.9979 5.3842ZM9.92373 3.04861C11.2207 3.04861 12.2818 4.09962 12.2818 5.3842H7.56568C7.56568 4.09962 8.62681 3.04861 9.92373 3.04861ZM16.9979 21.7334H2.84958V7.71979H5.20763V10.0554C5.20763 10.6977 5.73819 11.2232 6.38666 11.2232C7.03512 11.2232 7.56568 10.6977 7.56568 10.0554V7.71979H12.2818V10.0554C12.2818 10.6977 12.8123 11.2232 13.4608 11.2232C14.1093 11.2232 14.6398 10.6977 14.6398 10.0554V7.71979H16.9979V21.7334Z" fill="black"/>
</svg>
