<svg width="24" height="25" viewBox="0 0 24 25" fill="none" xmlns="http://www.w3.org/2000/svg">
<path d="M12.322 0.713013C5.8758 0.713013 0.644073 6.14596 0.644073 12.8401C0.644073 19.5343 5.8758 24.9673 12.322 24.9673C18.7683 24.9673 24 19.5343 24 12.8401C24 6.14596 18.7683 0.713013 12.322 0.713013ZM6.5648 20.456C7.06696 19.3645 10.1266 18.2973 12.322 18.2973C14.5175 18.2973 17.5888 19.3645 18.0793 20.456C16.4911 21.7657 14.4941 22.5418 12.322 22.5418C10.1499 22.5418 8.15301 21.7657 6.5648 20.456ZM19.7492 18.6975C18.0793 16.5874 14.027 15.8719 12.322 15.8719C10.6171 15.8719 6.5648 16.5874 4.89485 18.6975C3.7037 17.0725 2.97967 15.0473 2.97967 12.8401C2.97967 7.49207 7.17206 3.13844 12.322 3.13844C17.472 3.13844 21.6644 7.49207 21.6644 12.8401C21.6644 15.0473 20.9404 17.0725 19.7492 18.6975ZM12.322 5.56386C10.0565 5.56386 8.23475 7.45569 8.23475 9.80835C8.23475 12.161 10.0565 14.0528 12.322 14.0528C14.5876 14.0528 16.4093 12.161 16.4093 9.80835C16.4093 7.45569 14.5876 5.56386 12.322 5.56386ZM12.322 11.6274C11.3528 11.6274 10.5703 10.8149 10.5703 9.80835C10.5703 8.8018 11.3528 7.98928 12.322 7.98928C13.2913 7.98928 14.0737 8.8018 14.0737 9.80835C14.0737 10.8149 13.2913 11.6274 12.322 11.6274Z" fill="black"/>
</svg>
